<svg xmlns="http://www.w3.org/2000/svg" viewBox="0 0 720 380" width="720" height="380" role="img" aria-labelledby="t d">
<title id="t">How long you wait for an answer</title>
<desc id="d">the same 50 questions · M130. seconds: vault
(before, mean) 17.9 s, auto
(mean) 7.2 s, auto
(median) 4 s, from the cache
(a repeated question) 0 s</desc>
<style>
.bg{fill:#fcfcfb}.t1{fill:#0b0b0b}.t2{fill:#52514e}.grid{stroke:#e4e3df}.axis{stroke:#bdbcb6}
.s1{fill:#2a78d6}.s2{fill:#eb6834}.s3{fill:#1baf7a}.ref{stroke:#52514e}
@media (prefers-color-scheme: dark){.bg{fill:#1a1a19}.t1{fill:#ffffff}.t2{fill:#c3c2b7}.grid{stroke:#383835}
.axis{stroke:#5c5b57}.s1{fill:#3987e5}.s2{fill:#d95926}.s3{fill:#199e70}.ref{stroke:#c3c2b7}}
text{font-family:system-ui,-apple-system,"Segoe UI",Roboto,sans-serif}
</style>
<rect class="bg" width="720" height="380" rx="8"/>
<text class="t1" x="56" y="30" font-size="17" font-weight="600">How long you wait for an answer</text>
<text class="t2" x="56" y="52" font-size="12.5">the same 50 questions · M130</text>
<line class="grid" x1="56" x2="696" y1="316.0" y2="316.0" stroke-width="1"/><text class="t2" x="48" y="320.0" font-size="11" text-anchor="end">0</text>
<line class="grid" x1="56" x2="696" y1="263.0" y2="263.0" stroke-width="1"/><text class="t2" x="48" y="267.0" font-size="11" text-anchor="end">5 s</text>
<line class="grid" x1="56" x2="696" y1="210.0" y2="210.0" stroke-width="1"/><text class="t2" x="48" y="214.0" font-size="11" text-anchor="end">10 s</text>
<line class="grid" x1="56" x2="696" y1="157.0" y2="157.0" stroke-width="1"/><text class="t2" x="48" y="161.0" font-size="11" text-anchor="end">15 s</text>
<line class="grid" x1="56" x2="696" y1="104.0" y2="104.0" stroke-width="1"/><text class="t2" x="48" y="108.0" font-size="11" text-anchor="end">20 s</text>
<path class="s1" d="M104.0,316.0 V130.3 Q104.0,126.3 108.0,126.3 H164.0 Q168.0,126.3 168.0,130.3 V316.0 Z"/>
<text class="t1" x="136.0" y="120.3" font-size="12" text-anchor="middle" font-weight="600">17.9 s</text>
<text class="t2" x="136.0" y="334.0" font-size="12" text-anchor="middle">vault</text>
<text class="t2" x="136.0" y="348.0" font-size="12" text-anchor="middle">(before, mean)</text>
<path class="s1" d="M264.0,316.0 V243.7 Q264.0,239.7 268.0,239.7 H324.0 Q328.0,239.7 328.0,243.7 V316.0 Z"/>
<text class="t1" x="296.0" y="233.7" font-size="12" text-anchor="middle" font-weight="600">7.2 s</text>
<text class="t2" x="296.0" y="334.0" font-size="12" text-anchor="middle">auto</text>
<text class="t2" x="296.0" y="348.0" font-size="12" text-anchor="middle">(mean)</text>
<path class="s1" d="M424.0,316.0 V278.1 Q424.0,274.1 428.0,274.1 H484.0 Q488.0,274.1 488.0,278.1 V316.0 Z"/>
<text class="t1" x="456.0" y="268.1" font-size="12" text-anchor="middle" font-weight="600">4 s</text>
<text class="t2" x="456.0" y="334.0" font-size="12" text-anchor="middle">auto</text>
<text class="t2" x="456.0" y="348.0" font-size="12" text-anchor="middle">(median)</text>
<path class="s1" d="M584.0,316.0 V316.0 Q584.0,315.6 584.4,315.6 H647.6 Q648.0,315.6 648.0,316.0 V316.0 Z"/>
<text class="t1" x="616.0" y="309.6" font-size="12" text-anchor="middle" font-weight="600">0 s</text>
<text class="t2" x="616.0" y="334.0" font-size="12" text-anchor="middle">from the cache</text>
<text class="t2" x="616.0" y="348.0" font-size="12" text-anchor="middle">(a repeated question)</text>
<line class="axis" x1="56" x2="696" y1="316" y2="316" stroke-width="1"/>
<text class="t2" x="56" y="368" font-size="11">A case with several problems takes the deep path: ~100 s, every sentence checked on the law.</text>
</svg>