<svg xmlns="http://www.w3.org/2000/svg" viewBox="0 0 720 380" width="720" height="380" role="img" aria-labelledby="t d">
<title id="t">Primo avvio del ragionatore dopo un cambio di binario</title>
<desc id="d">llama.cpp 7fee178 su 2 × RTX 5060 Ti · M23, M34. secondi: nvcc 12.4
(kernel tradotti al volo) 15,8 s, nvcc 13.4
(sm_120 nativo) 3,6 s</desc>
<style>
.bg{fill:#fcfcfb}.t1{fill:#0b0b0b}.t2{fill:#52514e}.grid{stroke:#e4e3df}.axis{stroke:#bdbcb6}
.s1{fill:#2a78d6}.s2{fill:#eb6834}.s3{fill:#1baf7a}.ref{stroke:#52514e}
@media (prefers-color-scheme: dark){.bg{fill:#1a1a19}.t1{fill:#ffffff}.t2{fill:#c3c2b7}.grid{stroke:#383835}
.axis{stroke:#5c5b57}.s1{fill:#3987e5}.s2{fill:#d95926}.s3{fill:#199e70}.ref{stroke:#c3c2b7}}
text{font-family:system-ui,-apple-system,"Segoe UI",Roboto,sans-serif}
</style>
<rect class="bg" width="720" height="380" rx="8"/>
<text class="t1" x="56" y="30" font-size="17" font-weight="600">Primo avvio del ragionatore dopo un cambio di binario</text>
<text class="t2" x="56" y="52" font-size="12.5">llama.cpp 7fee178 su 2 × RTX 5060 Ti · M23, M34</text>
<line class="grid" x1="56" x2="696" y1="316.0" y2="316.0" stroke-width="1"/><text class="t2" x="48" y="320.0" font-size="11" text-anchor="end">0</text>
<line class="grid" x1="56" x2="696" y1="263.0" y2="263.0" stroke-width="1"/><text class="t2" x="48" y="267.0" font-size="11" text-anchor="end">5 s</text>
<line class="grid" x1="56" x2="696" y1="210.0" y2="210.0" stroke-width="1"/><text class="t2" x="48" y="214.0" font-size="11" text-anchor="end">10 s</text>
<line class="grid" x1="56" x2="696" y1="157.0" y2="157.0" stroke-width="1"/><text class="t2" x="48" y="161.0" font-size="11" text-anchor="end">15 s</text>
<line class="grid" x1="56" x2="696" y1="104.0" y2="104.0" stroke-width="1"/><text class="t2" x="48" y="108.0" font-size="11" text-anchor="end">20 s</text>
<path class="s1" d="M184.0,316.0 V152.5 Q184.0,148.5 188.0,148.5 H244.0 Q248.0,148.5 248.0,152.5 V316.0 Z"/>
<text class="t1" x="216.0" y="142.5" font-size="12" text-anchor="middle" font-weight="600">15,8 s</text>
<text class="t2" x="216.0" y="334.0" font-size="12" text-anchor="middle">nvcc 12.4</text>
<text class="t2" x="216.0" y="348.0" font-size="12" text-anchor="middle">(kernel tradotti al volo)</text>
<path class="s1" d="M504.0,316.0 V281.8 Q504.0,277.8 508.0,277.8 H564.0 Q568.0,277.8 568.0,281.8 V316.0 Z"/>
<text class="t1" x="536.0" y="271.8" font-size="12" text-anchor="middle" font-weight="600">3,6 s</text>
<text class="t2" x="536.0" y="334.0" font-size="12" text-anchor="middle">nvcc 13.4</text>
<text class="t2" x="536.0" y="348.0" font-size="12" text-anchor="middle">(sm_120 nativo)</text>
<line class="axis" x1="56" x2="696" y1="316" y2="316" stroke-width="1"/>
<text class="t2" x="56" y="368" font-size="11">Generazione: 110,6 → 112,4 token/s (M28, M34). Misure: M23 primo caricamento, M34 avvio fino a /health.</text>
</svg>